<svg width="20" height="20" fill="none" xmlns="http://www.w3.org/2000/svg"><path d="M10 0C4.477 0 0 4.477 0 10s4.477 10 10 10 10-4.477 10-10S15.523 0 10 0z" fill="#40B3E0"/><path d="M14.866 5.752l-1.786 9.006s-.25.624-.937.325l-4.122-3.16-1.498-.725L4 10.348s-.388-.137-.425-.436c-.038-.3.437-.462.437-.462l10.03-3.935s.824-.362.824.238" fill="#fff"/><path d="M7.704 14.657s-.12-.012-.27-.486c-.15-.475-.912-2.973-.912-2.973l6.058-3.847s.35-.212.337 0c0 0 .063.038-.125.213-.187.174-4.758 4.284-4.758 4.284" fill="#D2E5F1"/><path d="M9.602 13.134l-1.63 1.486s-.128.097-.267.036l.312-2.76" fill="#B5CFE4"/></svg>