<svg width="20" height="17" fill="none" xmlns="http://www.w3.org/2000/svg"><g clip-path="url(#clip0)"><path d="M20 1.989a8.206 8.206 0 01-2.357.646 4.115 4.115 0 001.804-2.27 8.217 8.217 0 01-2.605.995A4.103 4.103 0 009.85 5.103 11.65 11.65 0 011.392.816a4.085 4.085 0 00-.555 2.062c0 1.424.724 2.68 1.825 3.416A4.087 4.087 0 01.804 5.78v.052a4.106 4.106 0 003.29 4.023 4.11 4.11 0 01-1.852.07 4.107 4.107 0 003.833 2.85 8.233 8.233 0 01-5.096 1.757A8.55 8.55 0 010 14.475a11.614 11.614 0 006.29 1.843c7.547 0 11.674-6.252 11.674-11.675 0-.178-.003-.354-.011-.53A8.34 8.34 0 0020 1.989z" fill="#55ACEE"/></g><defs><clipPath id="clip0"><path fill="#fff" d="M0 0h20v16.328H0z"/></clipPath></defs></svg>